<?xml version="1.0" encoding="utf-8"?>
<!-- Generator: Adobe Illustrator 23.0.0, SVG Export Plug-In . SVG Version: 6.00 Build 0)  -->
<svg version="1.1" id="Layer_1" xmlns="http://www.w3.org/2000/svg" xmlns:xlink="http://www.w3.org/1999/xlink" x="0px" y="0px"
	 viewBox="0 0 8192 7050.89" style="enable-background:new 0 0 8192 7050.89;" xml:space="preserve">
<style type="text/css">
	.st0{fill:#EFEFEF;}
</style>
<path class="st0" d="M2326.75,6156.12c-4.36,5.11-5.7,10.05-7.66,14.73c-12.44,29.84-24.95,59.66-37.64,89.41
	c-3.05,7.14-6.29,14.33-11.77,19.81c-6.39-1.46-6.7-6.85-9.17-10.35c-7.16-10.16-10.24-11.38-21.49-7.32
	c-6.83,2.46-13.48,5.38-20.21,8.11c-45.84,18.65-91.76,37.14-139.27,51.19c-15.17,4.48-30.6,8.07-46.02,11.65
	c-22.28,5.17-44.3,4.64-66.43-2.15c-24.58-7.55-49.51-13.94-74.37-20.54c-5.7-1.52-11.67-2.17-17.57-2.66
	c-32.89-2.68-65.84-4.81-98.7-7.85c-21.7-2-43.05-6.29-64.14-11.93c-24.94-6.67-41.38-22.25-50.77-45.92
	c-9.96-25.12-14.25-50.71-7.44-77.48c3.37-13.26,9.94-24.29,20.62-32.93c14.95-12.1,30.66-22.85,48.7-29.99
	c5.45-2.15,10.99-4.76,15.55-8.34c30.1-23.71,65.05-34.47,102.43-38.31c9.51-0.98,17.81-3.13,25.8-8.5
	c8.18-5.5,16.98-10.2,25.89-14.47c21.19-10.14,43.37-15.26,67.15-13.3c21.75,1.79,43.66,2.3,64.92-3.9
	c11.34-3.32,22.59-7.36,33.34-12.25c14.31-6.51,24.81-17.34,30.91-32.04c5.82-14.02,12.09-27.89,17.09-42.2
	c18.32-52.32,36.21-104.79,54.19-157.24c1.27-3.72,1.87-7.65,2.87-11.87c-2.54-4.55-5.09-9.14-7.66-13.7
	c-8.12-14.44-14.64-29.52-19.25-45.48c-7.53-26.09-7.58-51.69,0.55-77.92c20.36-65.71,34-132.94,43.43-201.06
	c5.01-36.24,4.09-72.49-0.17-108.66c-4.63-39.33-9.84-78.6-14.97-117.87c-0.46-3.49-2.23-6.81-4.02-12.05
	c-8.09,9.98-10.67,21.97-21.06,26.86c-4.8-3.7-3.73-7.86-3.61-11.55c1.62-48.24-0.23-96.43-2.91-144.57
	c-2.69-48.14-7.17-96.15-19.04-143.1c-3.07-12.13-6.66-24.19-10.93-35.94c-22.83-62.81-51.54-122.93-83.87-181.35
	c-2.4-4.34-3.77-9.8-10.76-11.88c-7.66,23.87-12.44,48.68-27.8,68.99c-1.45,1.91-3.72,3.21-5.85,4.99
	c-6.73-5.39-8.3-12.73-11.19-19.08c-39.6-87.16-80.24-173.82-124.05-258.95c-18.42-35.8-38.25-70.86-57.52-106.22
	c-22.39-41.08-52.3-75.92-87.36-106.76c-49.65-43.68-101.95-83.97-155.2-123.06c-47.37-34.79-94.84-69.46-142.9-103.28
	c-28.08-19.76-50.49-44.28-68.99-72.85c-25.98-40.13-45.68-83.28-62.27-127.96c-16.59-44.63-30.05-90.15-37.56-137.27
	c-1.54-9.65-2.43-19.41-3.69-29.69c-7.67,10.26-9.83,21.12-15.92,68.5c-2.96,23.03-3.13,45.96-0.44,71.44
	c-3.84-3.15-6.58-4.66-8.3-6.93c-21.49-28.44-35.97-60.2-41-95.44c-3.91-27.4-6.54-55.12-7.52-82.77
	c-1.66-46.85-1.55-93.77-2.26-140.65c-0.08-4.93,1.74-10.43-3.81-15.63c-15.72,25.92-25.44,53.65-37.22,84.1
	c-1.71-7.9-3.17-12.3-3.57-16.78c-5.51-63.49-5.07-126.72,10.56-188.98c4.49-17.87,10.1-35.58,16.67-52.8
	c32.51-85.16,61.32-171.5,84.66-259.64c9.98-37.66,18.7-75.63,23.9-114.28c5.34-39.68,3.78-79.11-6.65-117.89
	c-4.28-15.92-9.74-31.54-22.23-44.27c-10.2-0.53-20.65-1.07-32.02-1.65c1.52-5.86,2.57-10.97,4.15-15.9
	c36.79-114.57,64.43-231.41,85.01-349.87c9.15-52.72,14.99-105.93,13.04-159.66c-0.26-7.02,0.46-14.31-2.61-21.4
	c-10.71,7.94-14.27,15.58-32.48,69.48c-1.41-2.94-2.63-4.48-2.85-6.14c-5.55-40.12-7.22-80.15,1.03-120.21
	c5.02-24.36,14.52-46.37,29.58-66.27c22.45-29.66,40.57-61.74,51.57-97.55c11.29-36.79,13.54-73.91,4.18-111.38
	c-5.43-21.76-10.92-43.53-17.55-64.95c-3.28-10.59-8.65-20.67-14.09-30.41c-5.24-9.39-13.97-13.71-24.97-12.56
	c-6.57,0.68-13.21,1-19.67,2.26c-25.83,5.03-51.32,2.3-76.64-3.21c-18.34-3.99-34.57-12.82-49.74-23.68
	c-20.01-14.33-37.26-31.54-52.79-50.56c-1.65-2.03-3.51-3.9-6.06-6.74c-43.85-5.7-88.47-9.11-133.49-6.48
	c-31.71,1.85-62.91,7.22-94.22,12.08c-42.45,6.59-85.08,11.31-128.19,9.84c-17.25-0.59-34.14-3.11-50.84-7.34
	c-14.28-3.63-27.53-9.47-38.92-18.8c-17.86-14.64-35.42-29.66-53.01-44.65c-12.03-10.25-22.92-22.01-37.95-28.23
	c-7.3-3.02-11.27-9.4-13.81-16.14c-4.87-12.94-8.93-26.2-12.99-39.42c-2.12-6.89-3.55-13.98-5.55-22c-4.3,1.84-8.09,2.87-11.23,4.91
	c-26.56,17.25-53.25,34.33-79.37,52.24c-9.18,6.3-18.31,10.17-29.42,9.04c-14.83-1.51-24-11.83-22.8-26.84
	c0.47-5.81,2.1-11.75,4.36-17.15c4.09-9.72,8.61-19.31,13.73-28.52c20.91-37.58,44.85-73.15,70.98-107.3
	c12.21-15.95,26.43-29.48,44.01-39.29c20.16-11.27,40.26-22.68,60.67-33.48c6.31-3.34,13.43-5.49,20.43-7.18
	c83.38-20.2,167.12-38.75,251.93-52.07c16.29-2.56,32.76-3.97,49.15-5.85c8.42-0.96,17.01-0.89,27.75-4.09
	c-4.36-2.9-6.58-4.92-9.18-6.04c-50.77-21.74-103.15-35.97-158.87-37.82c-44.28-1.48-88.11-7.4-130.1-23.03
	c-19.88-7.4-38.83-16.51-56.73-27.9c-50.79-32.34-99.15-67.92-144.22-107.87c-8.47-7.51-17.29-13.98-27.91-18.3
	c-7.88-3.2-15.26-7.83-22.46-12.44c-16.32-10.45-26.96-24.91-30.42-44.38c-4.16-23.39-8.56-46.74-13.05-70.08
	c-3.86-20.08-7.85-40.16-12.07-60.17c-4.41-20.88-12.29-40.27-24.4-58.02c-7.81-11.43-15.18-23.26-21.59-35.52
	c-4.22-8.06-7.43-17-9.25-25.92c-3.26-15.94,2.74-28.73,17.03-36.73c7.43-4.15,15.42-7.52,23.47-10.34
	c24.45-8.59,50.01-12.12,75.6-14.86c20.33-2.18,40.85-2.66,61.22-4.51c7.78-0.71,15.58-2.58,23.05-4.95
	c37.76-12.06,75.89-22.71,115.14-28.56c15.61-2.33,31.59-3.98,47.32-3.49c58.08,1.8,116.14,4.57,174.2,7.09
	c50.2,2.19,100.37,1.97,150.48-1.92c16.56-1.29,32.68-4.64,47.79-11.81c10.14-4.82,20.33-9.51,30.24-14.76
	c57.82-30.69,112.92-65.74,166.48-103.35c23.31-16.38,41.69-36.28,52.67-62.8c2.26-5.46,5.38-10.59,8.39-15.7
	c5.13-8.72,11.99-15.95,21.1-20.38c14.49-7.03,26.29-17.53,38.23-27.97c15.42-13.46,30.74-27.05,46.71-39.84
	c17.09-13.69,36.1-24.3,56.69-32c19.44-7.27,39.59-10.05,60.23-9.98c38.35,0.14,76.52,3.43,114.58,7.74
	c39.35,4.45,78.66,9.33,117.95,14.28c34.71,4.37,69.31,9.52,104.07,13.53c45.89,5.29,91.85,10.05,137.84,14.47
	c12.43,1.2,25.08,0.54,37.61,0.37c37.77-0.54,75.24,2.06,112.03,11.07c10.22,2.51,20.37,5.65,30.22,9.35
	c19.41,7.32,36.43,18.32,50.51,33.86c21.27,23.5,42.86,46.73,64.42,69.97c42.23,45.52,84.43,91.04,126.83,136.4
	c22.13,23.68,45.87,45.5,72.58,64.18c10.67,7.46,19.95,17.35,28.54,27.27c21.31,24.61,38.62,52.06,51.04,82.11
	c6.25,15.12,10.15,31.37,13.71,47.42c10.87,48.96,20.77,98.14,31.66,147.09c4.72,21.21,10.91,42.09,16.53,63.52
	c-2.68,3.38-5.83,0.48-8.27-0.78c-8.65-4.43-17.04-9.36-27.08-14.97c0.13,9.09,4.51,15.02,7.57,21.22
	c30.11,60.96,60.04,122.01,90.68,182.71c25.88,51.26,52.32,102.25,79.11,153.05c10.77,20.42,22.91,40.13,34.83,59.91
	c8.55,14.19,19.33,26.46,31.48,37.95c29.09,27.49,46.9,61.7,55.9,100.57c0.12,0.51-0.52,1.18-1.35,2.93
	c-3.21-1.78-6.47-3.36-9.49-5.3c-16.63-10.73-32.99-21.88-49.9-32.15c-5.88-3.57-12.3-7.7-21.39-5.65c0.36,3.16,0.24,6.37,1.13,9.27
	c12.73,41.66,26.18,83.09,42.49,123.52c10.22,25.31,23.64,48.53,41.74,69.16c25.25,28.8,50.04,58.01,74.76,87.28
	c9.36,11.09,18.04,22.77,26.86,34.31c2.34,3.06,4.02,6.62,6.77,11.23c-14.96,0.85-27.79-7.01-42.95-3.72
	c2.12,4.27,3.37,7.92,5.51,10.94c50.52,71.06,101.53,141.76,157.99,208.31c12.38,14.59,25.96,28.15,38.87,42.29
	c21.82,23.9,43.7,47.74,65.24,71.88c41.34,46.32,82.3,92.97,123.76,139.19c14.1,15.72,28.99,30.76,43.9,45.73
	c25.19,25.27,51.08,49.77,83.55,68.26c-14.2,14.03-31.95,14.72-50.87,17.21c3.97,4.98,6.84,9.15,10.26,12.79
	c76.54,81.24,152.78,162.78,229.83,243.54c79.34,83.17,160.15,164.91,244.24,243.31c31.86,29.71,64.86,58.25,97.82,86.75
	c17.97,15.55,37.04,29.8,57.84,41.54c1.61,0.9,2.69,2.74,5.24,5.47c-19.61-1.42-36.94-6.89-55.77-8.44
	c3.47,3.44,6.71,7.17,10.45,10.27c39.2,32.4,78.34,64.88,117.76,96.99c82.44,67.16,165.11,134.05,250.62,197.3
	c31.29,23.15,63.96,44.43,95.97,66.61c2.04,1.42,3.76,3.3,7.46,6.61c-15.67-1.09-28.33-4.81-41.06-7.78
	c-13.47-3.15-26.83-6.92-40.09-10.91c-12.45-3.75-24.71-8.12-39.34-12.99c5.16,8.66,11.54,12.13,16.98,16.46
	c106.96,85.14,214.43,169.65,320.87,255.44c95.64,77.08,190.21,155.5,285.14,233.47c13.2,10.84,25.75,22.45,39.58,34.56
	c-6.75,2.71-10.26-1.08-14.16-2.44c-18.68-6.51-37.21-13.38-55.88-19.91c-6.76-2.36-13.75-3.76-21.57-2.57
	c0.52,6.71,5.57,9.43,8.97,12.98c54.37,56.77,107.88,114.35,158.8,174.27c26.52,31.21,52.39,62.95,75.66,96.71
	c4.02,5.84,7.62,11.97,11.57,18.21c-6.09,2.96-8.12-1.65-10.79-3.74c-34.88-27.26-70.06-54.15-107.64-77.57
	c-22.37-13.94-45.73-26.3-68.83-39.05c-5.6-3.09-11.9-4.92-17.26-7.09c-4.16,3.66-1.15,5.55-0.18,7.52
	c0.86,1.75,2.23,3.27,3.47,4.81c27.02,33.36,53.49,67.17,81.18,99.97c82.35,97.52,169.69,190.28,265.94,274.33
	c41.91,36.6,80.45,76.36,115.6,119.46c59.5,72.95,109.76,151.94,153.4,235.22c45.78,87.36,84.19,177.67,110.27,273.03
	c9.4,34.36,19.94,68.45,31.35,102.2c9.71,28.73,20.68,57.09,32.42,85.05c11.54,27.48,27.45,52.53,45.98,76.04
	c57.33,72.75,101.73,152.54,129.59,241.17c3.17,10.08,6.09,20.22,9.37,30.26c5.36,16.44,13.01,31.75,23.29,45.67
	c19.58,26.5,45.1,44.09,77.49,51.28c5.78,1.29,11.54,2.67,18.69,4.31c-1.75,3.65-2.71,7.4-4.96,10.01
	c-8.61,9.95-19.98,14.73-32.87,16.41c-5.58,0.72-11.47-0.22-17.1,2.11c1.9,6.94,7.77,7.76,12.11,9.92
	c57.92,28.77,115.55,58.15,174.05,85.71c75.83,35.73,153,68.44,232.83,94.42c29.5,9.6,59.33,18.05,89.92,23.55
	c22.17,3.98,44.47,5.94,67.01,4.97c83.13-3.56,163.69-19.38,241.06-50.43c3.55-1.43,7.22-2.56,12.48-4.4
	c0.66,5.75,1.28,10.01,1.63,14.29c0.37,4.54,0.48,9.09,0.75,14.85c7.19,1.17,13.18-1.26,19.31-2.99
	c87.65-24.73,174.49-52.07,260.43-82.19c59.78-20.97,118.99-43.45,176.82-69.44c12.74-5.73,24.32-12.99,35.7-21.02
	c66.06-46.65,120.61-104.12,166.21-170.88c67.15-98.31,129.46-199.33,179.3-307.65c11.57-25.15,21.89-50.95,31.38-76.96
	c10.85-29.71,21.17-59.81,14.97-94.9c4.9,2.8,8.08,3.74,9.94,5.85c5.22,5.94,10.31,12.08,14.7,18.65
	c12.1,18.11,24.33,36.17,35.59,54.81c55.72,92.22,105.98,187.24,146.68,287.17c23.83,58.53,39.36,119.1,44.86,181.95
	c3.4,38.78,5.17,77.82-2.61,116.49c-0.64,3.22-1.4,6.44-2.37,9.58c-0.36,1.16-1.5,2.09-2.65,3.6c-4.17-1.98-2.72-6.44-3.94-9.52
	c-1.2-3.03-1.55-6.4-2.37-9.59c-7.91-30.65-15.24-61.48-24.05-91.88c-4-13.84-10.71-26.93-16.67-40.15
	c-1.76-3.91-5.15-7.09-7.52-10.23c-4.85,1.14-4.07,4.33-4.14,6.64c-1.22,38.28-2.28,76.58-3.42,114.86
	c-2.62,87.94-12.06,175.16-28.32,261.61c-4.52,24.01-10.37,47.75-19.4,70.53c-3.59,9.05-6.77,18.38-13.49,25.77
	c-5.66-2.54-3.46-7.06-3.39-10.52c0.54-25.2-1.02-50.21-6.94-74.74c-2.74-11.35-5.65-22.93-15.17-33.4
	c-2.28,4.29-4.39,7.38-5.66,10.79c-12.19,32.82-25.06,65.41-42.13,96.03c-11.23,20.14-24.08,39.38-36.45,58.87
	c-2.74,4.32-6.57,7.96-11.42,13.73c-1.46-4.17-2.6-6.2-2.83-8.34c-1.72-15.07-2.66-30.26-5.1-45.2c-1.37-8.32-4.87-16.37-8.02-24.3
	c-1.08-2.71-3.96-4.72-7.06-8.22c-14.42,19.66-27.46,38.52-41.65,56.48c-13.9,17.61-28.44,34.8-43.66,51.26
	c-15.68,16.95-32.05,33.35-49.03,48.99c-16.49,15.2-33.66,29.77-51.4,43.48c-18.27,14.11-37.17,27.51-56.61,39.95
	c-18.88,12.08-38.52,23.06-58.35,33.54c-20.3,10.74-41.12,20.52-64.57,28.3c0.06-10.14,5.99-17.11,7.54-25.2
	c1.44-7.5,4.67-15.19-0.69-23.97c-5.73,2.31-11.17,4.21-16.35,6.64c-76.14,35.64-154.98,63.52-236.76,83.16
	c-46.3,11.12-93.13,18.46-140.48,23.34c-102.61,10.6-205.54,13.84-308.6,14.09c-13.21,0.03-26.41-0.56-39.62-0.68
	c-5.81-0.05-11.61,0.36-18.17,0.58c-2.1,16.12,9.64,24.42,17.92,36.27c-5.67,0.98-9.84,2.22-14.04,2.34
	c-43.57,1.2-87.15,2.14-130.72,3.31c-79.26,2.12-158.52,0.98-237.75-1.43c-69.99-2.13-139.69-8.04-209.02-18.38
	c-46.37-6.92-92.59-14.31-138.28-24.86c-66.79-15.43-129.46-40.83-188.08-76.44c-34.24-20.81-64.64-46.02-89.23-77.56
	c-17.83-22.88-33.81-47.21-50.66-70.86c-8.42-11.82-16.48-23.95-25.59-35.22c-10.65-13.18-25.21-18.71-42.08-18.05
	c-10.2,0.4-12.76,1.52-25.97,11.22c0.54,8.32,1.04,17.48,1.71,26.62c2.44,32.99,3.25,65.94-1.5,98.84
	c-5.02,34.8-16.58,48.65-50.77,57.26c-15.95,4.01-32.43,5.95-48.67,8.83c-7.14,1.27-14.28,2.59-21.44,3.75
	c-8.73,1.43-16.13,5.43-22.92,10.99c-20.91,17.13-25.33,33.98-16,59.74c4.04,11.15,8.11,22.37,10.84,33.87
	c3.37,14.24,3.66,28.84-0.09,43.18c-6.69,25.64-24.21,40.84-49.13,46.35c-19.24,4.26-39.09,6.46-58.78,7.94
	c-92.25,6.89-184.71,8.05-277.17,9.69c-111.64,1.98-223.26,0.66-334.84-2.13c-65.33-1.63-130.59-6.23-195.89-9.48
	c-31.67-1.58-63.32-3.29-94.99-4.63c-42.89-1.81-85.82-2.84-128.68-5.09c-40.87-2.15-81.72-5.04-122.51-8.41
	c-17.07-1.41-33.91-5.06-50.15-11.01c-20.78-7.61-39.76-17.78-53.63-35.75c-1.15-1.49-3-2.43-6.27-4.98
	c-3.27,4.03-6.1,8.55-9.91,12.01c-10.23,9.3-20.25,19.07-31.52,27.01c-25.75,18.14-54.39,25.82-86.17,22.08
	c-28.56-3.36-55.83-10.25-80.57-25.22c-27.96-16.91-46.06-41.06-52.18-73.59c-2.23-11.82-2.22-23.65-0.15-35.46
	c1.03-5.85,2.5-11.61,3.94-18.24c-1.8-1.48-3.52-3.55-5.71-4.58c-13.18-6.17-17.32-17.4-17.44-30.79
	c-0.11-12.7,2.71-24.9,7.31-36.69c7.74-19.88,18.87-37.78,32.37-54.2c39.04-47.5,88.92-77.98,147.99-93.96
	c4.46-1.21,8.95-2.32,13.44-3.38c3.76-0.89,7.56-1.67,13.62-2.98c-3.55-2.66-5.24-4.81-7.33-5.35c-20.46-5.19-41.04-9.9-61.46-15.24
	c-6.76-1.77-12.83-0.76-19.38,0.77c-40.46,9.45-80.88,19.26-121.59,27.53c-33.64,6.84-67.66,11.61-102.25,10.44
	c-14.12-0.48-27.56-3.35-40.15-9.51c-19.09-9.35-31.38-24.02-32.65-46.02c-0.43-7.49-3.04-13.92-5.95-20.66
	c-4.17-9.63-7.81-19.66-10.19-29.86c-5.44-23.24-0.38-44.84,14.16-63.53c8.05-10.35,17.47-19.85,27.32-28.53
	c19.94-17.61,42.68-31.1,67.16-41.42c22.62-9.55,39.47-26,55-44.21c7.29-8.56,9.96-18.56,8.02-29.57
	c-1.6-9.09-3.75-18.08-5.64-27.12c-5.1-24.53-10.7-48.98-15.17-73.63c-7.65-42.21,0.88-81.22,24.16-117.31
	c15.47-23.99,33.25-45.99,53.02-66.49c7.77-8.06,15.34-16.33,24.11-25.69c-0.4-2.9-0.3-7.63-1.75-11.82
	c-6.27-18.05-12.63-36.08-19.67-53.85c-5.4-13.63-16.16-20.38-30.85-20.78c-19.8-0.54-39.6-1.2-59.4-1.61
	c-23.1-0.49-46.21-0.86-69.31-1.11c-24.74-0.27-46.3-9.53-66.25-23.23c-7.6-5.22-14.79-11.02-22.85-17.06
	c-4.62,1.92-9.41,3.9-14.19,5.9c-38.61,16.21-76.09,14.49-111.61-8.26c-12.16-7.79-23.21-17.35-34.51-26.43
	c-4.57-3.68-8.43-8.22-13.81-13.55c-2.04,3.43-4.16,5.74-4.9,8.43c-10.58,38.12-20.66,76.36-24.98,117.36
	c-9.6-4.44-13.52-13.21-19.45-19.71c-6.22-6.82-11.8-14.23-17.6-21.43c-5.8-7.2-11.55-14.45-17.25-21.72
	c-5.71-7.27-11.36-14.59-16.97-21.94c-5.62-7.34-11.21-14.71-16.7-22.14c-5.9-7.96-11.74-15.96-17.51-24.02
	c-5.38-7.52-10.69-15.09-15.93-22.71c-5.23-7.62-10.41-15.29-15.47-23.02c-5.06-7.74-10.06-15.52-14.88-23.4
	c-4.83-7.89-9.52-15.85-14.04-23.92c-4.52-8.06-8.61-16.36-13.13-24.41c-4.35-7.76-6.37-16.88-14.01-25.38
	c-1.51,4.85-2.91,7.76-3.27,10.78c-4.23,35.4-8.63,70.78-12.32,106.24c-3.96,38.09-7.79,76.2-10.62,114.39
	c-3.02,40.82-6.28,81.68-5.04,122.69c0.38,12.48,1.72,24.95,2.76,39.3c-3.48-1.99-6.17-3.05-8.25-4.83
	c-4.9-4.18-9.51-8.7-13.72-12.6c-5.66,1.71-4.8,5.56-5.22,8.54c-6.91,48.5-9.4,97.24-8.04,146.2c0.63,22.5,3.37,44.72,7.59,66.83
	c3.73,19.55,10.8,37.9,20.12,57.1c-12.29,0.43-21.81-3.96-31.2-8.2c-8.9-4.02-17.41-8.91-27.23-13.99
	c-0.63,15.18,3.32,28.44,6.4,41.75c3.12,13.49,6.33,27.02,10.56,40.19c4.02,12.53,8.58,25.06,14.46,36.8
	c6.08,12.15,14.04,23.36,21.3,35.2c-21.86,1.72-70.16-4.72-119.81-21.42c-8.63,11.6-11.66,22.98-14.44,49.91
	c-1.79,17.48,0.99,34.05,8.59,49.83c-24.95,8.66-46.21,5.82-84.6-11.22c-1.82,4.77-4.05,9.38-5.37,14.24
	c-12.09,44.6-23.1,89.48-30.25,135.18c-2.14,13.68-3.64,27.5-4.74,41.32c-1.16,14.6,0.13,29,6.18,42.69
	c4.64,10.48,5.86,21.58,5.05,32.97c-0.62,8.78-3.14,16.72-9.62,24.31c-8.8-11.45-12.67-25.58-24.36-33.79
	c-0.95-0.66-2.51-0.49-4.9-0.88c0.93,7.31,1.96,14.33,2.69,21.37c0.67,6.57,1.11,13.17,1.51,19.76c1.28,21.22-0.09,42.24-5.33,62.9
	c-8.69,34.26-27.57,60.83-58.35,78.98c-34.66,20.44-72.18,32.47-111.67,38.19c-19.54,2.83-39.41,3.66-59.17,4.43
	c-8.81,0.35-16.76,2.08-24.7,5.73c-42.73,19.61-86.9,34.98-133.14,43.95c-33.27,6.45-66.64,8.68-100.38,2.66
	c-42.44-7.59-79.34-24.33-105.4-61.25c-4.47,0.21-9,0.54-13.52,0.59c-20.45,0.26-41,1.83-61.32,0.35
	c-43.67-3.18-79.26-23.08-107.15-56.64c-8.94-10.75-15.56-22.77-18.69-36.71c-2.65-11.75-1.14-22.75,5.87-32.06
	c12.17-16.18,19.96-33.95,24.23-53.66c3.03-14.02,11.28-25.08,22.14-34.36c17.22-14.72,36.58-25.91,57.02-35.41
	c26.57-12.35,54.77-18.88,83.41-24.14c33.1-6.07,66.19-12.54,98-23.78c16.12-5.7,31.92-12.57,47.22-20.21
	c22.01-11,37.63-28.51,48.03-50.87c8.39-18.03,15.26-36.65,19.46-56.01c5.74-26.42,10.46-53.08,15.21-79.7
	C2328.53,6170.87,2330.05,6164.34,2326.75,6156.12z"/>
</svg>
