<?xml version="1.0" encoding="utf-8"?>
<!-- Generator: Adobe Illustrator 23.0.0, SVG Export Plug-In . SVG Version: 6.00 Build 0)  -->
<svg version="1.0" id="Layer_1" xmlns="http://www.w3.org/2000/svg" xmlns:xlink="http://www.w3.org/1999/xlink" x="0px" y="0px"
	 viewBox="0 0 2284.26 2120.17" style="enable-background:new 0 0 2284.26 2120.17;" xml:space="preserve">
<style type="text/css">
	.st0{fill:#112B3C;}
</style>
<path class="st0" d="M701.91,64.28c18.61,3.47,26.12,17.35,30.97,33.44c7.47,24.82,8.42,50.41,8.4,76.07
	c-0.03,46.35-4.74,92.33-11.14,138.17c-2.14,15.31-4.71,30.56-6.96,45.86c-0.19,1.3,0.21,2.97,0.94,4.07
	c6.14,9.26,13.41,17.91,18.48,27.71c15.12,29.18,26.22,60.07,36.67,91.18c1.19,3.54,3.06,5.66,6.38,7.37
	c19.81,10.15,36.36,24.67,52.17,40.03c16.3,15.85,31.54,32.65,43.91,51.85c0.84,1.3,1.89,2.55,2.36,3.98
	c6.57,19.78,22.25,31.92,37.73,43.84c18.78,14.46,38.26,28.03,57.54,41.83c2.29,1.64,5.18,2.66,7.94,3.41
	c61.73,16.68,120.38,40.47,174.37,75.1c86.21,55.29,148.67,130.62,189.18,224.43c21.71,50.27,35.79,102.72,44.39,156.69
	c11.28,70.82,13.04,142.04,8.08,213.45c-6.08,87.51-20.87,173.55-45.35,257.85c-0.27,0.92-0.47,1.86-0.82,3.25
	c11.95-2.13,23.38-4.25,34.84-6.21c57.64-9.85,115.73-13.64,174.14-12.22c108.66,2.63,214.15,21.58,315.12,62.79
	c60.42,24.66,116.28,56.95,164.85,101.01c14.55,13.2,28.6,26.88,38.45,44.16c18.93,33.22,16.15,65.75-3.56,97.52
	c-15.7,25.29-37.43,44.76-61.4,61.81c-55.41,39.4-117.17,65.17-182.22,83.5c-42.98,12.11-86.62,20.73-131.56,19.58
	c-24.66-0.63-49.01-3.83-71.64-14.74c-2.62-1.26-5.1-2.86-7.47-4.55c-12.29-8.77-16.29-20.86-11.74-35.31
	c3.7-11.75,10.88-21.41,18.92-30.42c17.72-19.85,17.89-19.36,44.69-24.36c54.91-10.26,109.25-22.85,161.45-43.25
	c21.01-8.21,41.41-17.68,58.92-32.33c2.63-2.2,5.16-4.57,7.45-7.12c14.67-16.39,14.96-33.16,0.81-49.99
	c-13.02-15.48-29.88-25.72-47.91-34.14c-30.91-14.43-63.73-22.44-97.2-28.02c-47.99-8-96.37-10.55-144.94-9.11
	c-64.98,1.92-129.16,9.57-191.65,28.45c-22.93,6.92-44.79,16.31-66.03,27.37c-34,17.73-69.87,29.69-108.36,32.22
	c-33.7,2.22-66.16-2.56-96.31-18.91c-1.67-0.91-4.27-0.84-6.24-0.38c-40.11,9.43-80,19.86-120.32,28.3
	c-56.74,11.87-113.96,21.13-172.21,20.06c-14.5-0.27-29.39-1.59-43.34-5.28c-26.54-7.02-46.14-23.47-55.33-50
	c-5.62-16.23-2.7-32.61,2.68-48.55c0.7-2.07,1.47-4.12,2.43-6.8c-11.27-1.94-22.03-3.8-32.79-5.63c-7.62-1.3-15.28-2.39-22.85-3.94
	c-3.8-0.78-5.73-0.01-7.41,3.81c-7.27,16.56-15.02,33.12-27.6,46.28c-18.79,19.67-38.87,38.29-64.89,48.03
	c-23.93,8.96-49.03,8.99-73.78,4.13c-15.41-3.03-30.4-8.3-45.44-12.98c-18.79-5.84-27.83-20.31-32.19-38.31
	c-1.61-6.65-2.03-13.57-3.4-20.29c-0.37-1.8-1.94-3.7-3.48-4.86c-7.37-5.55-15.68-10.08-22.25-16.43
	c-11.94-11.52-15.24-26.18-9.52-41.7c3.15-8.55,7.94-16.81,13.4-24.14c10.49-14.09,23.9-25.3,39.74-32.95
	c7.52-3.63,12.5-8.8,14.16-16.49c3.8-17.59,8.27-35.18,10.1-53.02c9.25-90.17,8.07-180.64,6.9-271.1
	c-0.15-11.81,1.44-23.69,0.59-35.41c-0.75-10.31-2.21-21.11-6.12-30.54c-11.9-28.67-24.25-57.23-38.03-85.03
	c-27.91-56.31-57.2-111.94-85.26-168.18c-12.91-25.88-22.36-53.15-26.82-81.95c-3.11-20.06-2.52-40.17-0.38-60.18
	c2.1-19.59-0.39-38.39-6.95-56.77c-5.95-16.64-11.94-33.28-18.31-49.76c-1.49-3.85-4.13-7.55-7.05-10.52
	c-33.31-33.83-63.37-70.15-86.7-111.71c-19.36-34.49-33.36-70.92-37.66-110.43c-5.94-54.62,4.89-105.28,37.57-150.4
	c1.12-1.54,1.68-4.1,1.35-6c-7-40.97-14.6-81.85-21.18-122.89c-5.63-35.12-10.96-70.38-8.84-106.17c0.85-14.24,3.96-27.8,14.1-38.93
	c5.5-6.04,11.95-7.77,19.05-4.97c9.06,3.57,18.15,7.43,26.45,12.44c28.66,17.29,54.07,38.97,79.52,60.54
	c18.89,16.01,37.91,31.89,56.39,48.35c9.26,8.25,19.34,12.54,31.74,11.95c20.09-0.97,40.22-1.18,60.28-2.54
	c26.58-1.81,53.09-4.5,79.65-6.62c3.67-0.29,5.74-1.58,7.55-4.87c19.1-34.71,40.09-68.17,66.98-97.51
	c6.37-6.95,13.37-13.38,20.52-19.54c10.15-8.73,21.82-14.77,35.07-17.42C697.09,64.28,699.5,64.28,701.91,64.28z"/>
</svg>
