<?xml version="1.0" encoding="utf-8"?>
<!-- Generator: Adobe Illustrator 23.0.0, SVG Export Plug-In . SVG Version: 6.00 Build 0)  -->
<svg version="1.1" id="Layer_1" xmlns="http://www.w3.org/2000/svg" xmlns:xlink="http://www.w3.org/1999/xlink" x="0px" y="0px"
	 viewBox="0 0 1015.15 866.04" style="enable-background:new 0 0 1015.15 866.04;" xml:space="preserve">
<style type="text/css">
	.st0{fill:#112B3C;}
</style>
<path class="st0" d="M380.5,847.02c102.33,0,204.67,0,307,0c1.96-0.27,3.91-0.58,5.87-0.82c20.15-2.41,40.48-3.8,60.41-7.43
	c31.75-5.78,61.48-17.3,87.8-36.46c43.24-31.48,64.28-75.64,71.87-127.24c5.96-40.47,3.47-80.81-3.68-120.86
	c-3.98-22.25-9.73-44.18-14.21-66.35c-7.34-36.33-3.36-71.99,7.99-106.91c13.03-40.11,34.81-74.37,69.28-99.59
	c7.55-5.53,15.78-10.13,24.05-15.38c-1.74-0.36-3.17-0.76-4.63-0.94c-11.89-1.48-23.77-3.19-35.69-4.31
	c-37.59-3.55-74.91-2-111.61,7.46c-43.61,11.23-81.06,32.65-109.6,68.12c-31.95,39.71-45.34,86.03-47.85,136.14
	c-1.55,30.85,3.55,61.05,8.36,91.35c6.33,39.9,7.28,79.93-0.44,119.83c-5.04,26.06-13.58,50.79-29.32,72.55
	c-2.69,3.71-5.83,7.09-8.77,10.62c-0.22-4.07,0.5-7.61,1.15-11.16c0.68-3.77,1.46-7.53,1.9-11.32c5.28-45.1,4.78-90.12-2.9-134.92
	c-10.97-64.05-41.87-116.57-92.28-157.59c-41.25-33.57-88.45-55.95-138.46-72.78c-15.86-5.34-29.61-13.57-41.27-25.37
	c-28.45-28.77-42.77-64.23-47.86-103.71c-2.08-16.16-1.85-32.64-4.31-48.73c-5.32-34.82-19.77-65.55-44.99-90.55
	c-15.14-15.01-32.66-25.73-54.79-26.85c-1.56-0.08-3.24-1.5-4.51-2.67c-8.46-7.78-16.67-15.85-25.26-23.48
	c-16.25-14.43-31.63-30.11-52.25-38.65c-1.33,0-2.67,0-4,0c-4.25,3.1-5.48,7.65-6.04,12.53c-1.9,16.73,0.44,33.25,2.61,49.76
	c1.12,8.51,2.6,16.98,3.89,25.28c-25.62,13.9-34.5,26.33-38.81,55.16c-2.25,15.01-9.04,27.3-20.17,37.42
	c-9.85,8.97-21.3,15.31-33.29,20.85c-10.26,4.74-20.76,9.1-30.51,14.72c-8.75,5.05-9.09,11.77-1.66,18.7
	c8.87,8.28,19.22,14.32,30.94,17.66c14.6,4.15,29.22,2.16,43.46-1.46c17.46-4.44,32.18,1.45,46.12,10.6
	c8.98,5.89,9.3,9.57,3.33,18.37c-11.28,16.62-21.14,33.98-25.77,53.72c-6.19,26.37-2.42,51.97,9.56,75.8
	c16.58,32.99,34.45,65.34,51.9,97.89c5.47,10.19,10.51,20.56,11.48,32.21c2.47,29.72,0.77,59.27-5.58,88.42
	c-11.2,51.38-36.19,95.95-68.79,136.53c-3.77,4.69-9.71,8.05-15.25,10.82c-9.67,4.83-20.36,4.4-30.88,4.11
	c-10.04-0.28-19.55,1.65-28.24,6.83c-8.76,5.23-11.66,11.94-9.73,21.94c2.4,12.39,10.22,19.03,23.62,19.16
	c26.32,0.24,52.65-0.02,78.98,0.27c7.29,0.08,13.28-2.17,18.8-6.62c14.4-11.62,25.86-25.94,36.88-40.58
	c33.71-44.77,62.98-92.44,91.38-140.68c0.87-1.48,1.85-2.9,3.38-5.3c0.22,2.22,0.3,3.17,0.4,4.12
	c3.32,31.31,13.94,59.52,35.54,82.97c24.37,26.46,55.22,41.11,89.81,48.79c5.12,1.14,10.3,1.98,15.46,2.95
	c-1.56,1.27-3.11,1.83-4.7,2.2c-15.72,3.64-31.62,6.63-47.1,11.1c-9.29,2.68-18.46,6.77-26.68,11.85c-8,4.95-7.65,15.86-0.11,21.64
	c3.2,2.45,7.21,4.23,11.14,5.26C368.62,845.5,374.61,846.06,380.5,847.02z"/>
</svg>
