<?xml version="1.0" encoding="utf-8"?>
<!-- Generator: Adobe Illustrator 23.0.0, SVG Export Plug-In . SVG Version: 6.00 Build 0)  -->
<svg version="1.1" id="Layer_1" xmlns="http://www.w3.org/2000/svg" xmlns:xlink="http://www.w3.org/1999/xlink" x="0px" y="0px"
	 viewBox="0 0 1000 1000" style="enable-background:new 0 0 1000 1000;" xml:space="preserve">
<style type="text/css">
	.st0{fill:#9A4207;}
</style>
<g>
	<path class="st0" d="M867.14,530.12c-0.31,21.62-2.84,44.04-10.07,65.74c-16.8,50.43-57.94,74.66-109.98,63.88
		c-29.08-6.02-55.35-18.31-75.72-40.72c-22.27-24.5-25.25-53.79-8.71-82.4c4.23-7.34,8.79-14.59,14.03-21.22
		c15.28-19.36,23.9-41.32,27.27-65.58c0.59-4.26,1.86-8.44,2.82-12.65c9.48-41.82,51.3-59.19,88-46.03
		c22.17,7.96,37.47,23.65,48.96,43.49C860.62,463.79,867.09,495.6,867.14,530.12z"/>
	<path class="st0" d="M820.48,786.3c-0.63,51.82-41.37,96.36-92.94,101.92c-18.11,1.95-35.49-1.37-53.01-4.6
		c-7.16-1.32-14.34-3.63-21.5-3.59c-16.71,0.09-32.27,4.99-43.89,17.49c-8.91,9.58-17.08,20.04-24.32,30.95
		c-17.88,26.96-41.73,44.56-74.07,49.44c-30.58,4.61-58.96-2.24-85.26-17.95c-29.97-17.9-52.13-43.29-68.56-73.77
		c-12.95-24.01-21.33-49.5-21.52-77.07c-0.3-44.02,15.97-80.05,52.27-106.16c6.09-4.38,12.06-8.92,17.95-13.54
		c20.83-16.31,31-38.5,35.46-63.97c2.01-11.45,3.56-23.19,7.36-34.08c12.22-35.06,45.25-57.55,82.6-57.43
		c37.4,0.12,71.17,23.87,83.83,59.37c3.12,8.75,5.73,17.77,7.63,26.87c7.49,35.89,30.53,54.82,65.54,60.79
		c17.22,2.94,34.63,4.9,51.79,8.13c28.29,5.33,50.31,20.38,65.7,44.81c1.7,2.69,2.59,5.91,3.73,8.94
		c3.13,8.35,6.74,16.58,9.11,25.15C820,773.84,819.84,780.18,820.48,786.3z"/>
	<path class="st0" d="M481.53,412.35c-3.85,33.38-26.98,60.66-59.76,69.51c-40.82,11.02-75.17-1.54-104.02-31.01
		c-16.1-16.46-26.68-36.46-34.58-57.91c-11.13-30.21-17.26-60.77-17.52-91.98c0.09-20.81,6.12-46.02,24-67.16
		c31.07-36.75,87.66-38.89,121.88-4.98c12.88,12.76,22.47,27.75,29.13,44.39c11.73,29.35,22.97,58.9,33.83,88.58
		C480.43,378.01,483.54,394.98,481.53,412.35z"/>
	<path class="st0" d="M394.69,647.91c-15.28,24.89-36.05,43.34-64.82,50.76c-33.08,8.53-62.66-0.33-89.04-20.86
		c-25.63-19.93-40.95-46.9-50.86-77.27c-7.36-22.58-11.99-45.69-12.99-64.22c-0.26-17.84,1.63-30.14,9.24-40.38
		c11.41-15.35,27.77-22.72,46.32-20.33c54.58,7.02,105.59,23.73,147.36,61.53c16.51,14.93,27.37,33.5,29.42,56.24
		C411.12,613.29,404.92,631.25,394.69,647.91z"/>
	<path class="st0" d="M583.25,179.19c-7.87,13.85-20.3,20.58-32.48,20.98c-23.98-0.04-41.25-14.47-44.5-34.85
		c-6.41-40.17-18-78.73-34.57-115.84c-3.6-8.07-2.13-15.6,3.66-20.47c6.94-5.84,16.16-5.45,23.04,1.2
		c23.29,22.51,44.33,46.97,62.71,73.64c7.55,10.95,14.84,22.11,21.66,33.53C590.93,151.05,591.11,165.35,583.25,179.19z"/>
	<path class="st0" d="M227.73,441.64c-8.02,14.83-24.22,22.48-41.78,20.46c-15.87-1.81-29.36-13.73-34.23-30.24
		c-10.02-33.94-17.63-82.24-18.85-118.06c0-5.82-0.05-11.65,0.01-17.48c0.09-8.85,5.48-15.27,14.03-16.82
		c7.64-1.38,14.92,2.88,18.14,10.89c9.21,22.89,19.9,45.06,32.99,65.97c8.29,13.25,17.26,26.08,26.29,38.84
		C234.88,410.11,236.4,425.6,227.73,441.64z"/>
	<path class="st0" d="M691.92,346.86c-1.16,41.62-10.87,76.54-35.91,105.83c-19.15,22.41-43.36,35.03-73.43,34.25
		c-10.44-0.27-20.27-2.96-30.22-6.96c-18.57-7.49-31.2-20.39-40.34-37.44c-6.2-11.55-8.64-24.25-8.61-37.13
		c0.06-24.17-4.42-47.62-8.63-71.26c-5.19-29.09-1.84-57.21,15.61-82.21c31.14-44.62,93.03-51.14,134.74-14.28
		c24.81,21.91,37.82,50.23,43.7,82.16C690.69,329.93,691.19,340.3,691.92,346.86z"/>
	<path class="st0" d="M347.53,162.16c-0.61,22.67-18.85,41.38-41.28,41.8c-22.87,0.43-42.04-17.51-42.31-40.29
		c-0.48-41-5.79-81.28-16.79-120.8c-2.53-9.06,0.92-16.84,8.64-20.58c7.27-3.53,15.44-1.18,21.09,6.22
		c27.73,36.34,49.76,75.92,66.85,118.25C345.69,151.62,346.3,157.02,347.53,162.16z"/>
	<path class="st0" d="M795.27,358.9c-13.21,10.6-28.26,12.35-43.6,5.05c-15.75-7.5-23.23-20.72-23.71-34.13
		c1.51-19.62,3.12-35.37,3.84-51.15c1.17-25.49-0.08-50.91-3.47-76.23c-0.45-3.4-0.59-7.1,0.26-10.36
		c1.83-6.98,6.99-10.94,14.03-11.68c7.08-0.74,12.97,2.18,16.17,8.59c9.36,18.73,19.56,37.18,27.23,56.61
		c9.07,22.99,16.45,46.7,23.38,70.45C814.33,332.92,809,347.89,795.27,358.9z"/>
</g>
</svg>
